<!DOCTYPE svg PUBLIC "-//W3C//DTD SVG 1.1//EN" "http://www.w3.org/Graphics/SVG/1.1/DTD/svg11.dtd">
<!-- Uploaded to: SVG Repo, www.svgrepo.com, Transformed by: SVG Repo Mixer Tools -->
<svg height="64px" width="64px" version="1.1" id="_x32_" xmlns="http://www.w3.org/2000/svg" xmlns:xlink="http://www.w3.org/1999/xlink" viewBox="0 0 512 512" xml:space="preserve" fill="#bd561f" stroke="#bd561f">
<g id="SVGRepo_bgCarrier" stroke-width="0"/>
<g id="SVGRepo_tracerCarrier" stroke-linecap="round" stroke-linejoin="round"/>
<g id="SVGRepo_iconCarrier"> <style type="text/css"> .st0{fill:#d7681d;} </style> <g> <path class="st0" d="M499.664,194.325c-4.232-6.85-9.71-12.699-16.474-16.825c-6.742-4.137-14.697-6.423-23.332-6.423 c0,0-0.129,0-0.33,0.011c-15.835,0.074-31.586,4.317-46.517,8.433c-13.229,3.712-25.886,7.295-36.68,8.433 c1.191-2.818,1.83-5.775,1.872-8.71h0.011l0.011-0.17v-0.138v-0.032v-0.043c-0.022-6.157-2.457-11.709-5.881-16.398 c-5.169-7.051-12.698-12.698-20.759-17.091c-8.083-4.37-16.739-7.444-24.587-8.656c-3.648-0.563-7.136-0.819-10.466-0.83 l-0.255-0.01c-0.011,0-0.022,0-0.042,0h-0.022c-9.305,0-17.334,1.967-23.981,4.785c-5.275,2.244-9.656,4.998-13.262,7.71 c-12.889-5.019-26.651-9.518-41.156-12.91c-1.415-5.382-3.456-10.178-6.104-14.315c-3.222-5.041-7.296-9.124-11.88-12.229 c-9.975-6.722-21.854-8.955-33.318-8.966c-9.966,0.011-19.771,1.702-28.278,4.074c-7.509,2.084-13.644,5.403-18.611,9.295 c-4.966,3.892-8.774,8.326-11.836,12.624c-2.531,3.551-4.595,7.008-6.424,10.029c-1.424,2.382-2.722,4.466-3.881,6.104 c-19.546,7.114-37.18,16.601-52.376,26.98c-15.644,10.688-28.745,22.291-38.859,33.341c-10.093,11.071-17.25,21.428-20.983,30.49 C1.756,241.478,0.011,249.869,0,257.963v0.127c-0.011,10.401,2.903,20.122,7.933,28.746c8.838,15.101,23.695,26.938,41.444,36.679 c25.46,13.9,57.331,23.524,88.598,29.99c5.275,14.804,10.805,28.14,18.548,38.626c4.381,5.913,9.549,10.943,15.824,14.474 c6.157,3.478,13.314,5.382,21.195,5.434l0.106,0.011h0.287h0.022h0.063c2.744-0.011,5.583-0.223,8.508-0.659 c5.827-0.852,10.91-2.468,15.25-4.744c4.328-2.276,7.891-5.222,10.634-8.614c2.733-3.372,4.626-7.125,5.806-10.943 c1.127-3.616,1.617-7.296,1.66-10.879l0.021-0.117v-0.49v-0.02v-0.075c-0.021-4.126-0.616-8.114-1.627-11.826 c15.293-0.5,29.618-3.158,42.848-7.05c3.966,2.158,8.337,3.689,12.974,4.7c5.584,1.212,11.528,1.723,17.59,1.734h0.011 c11.102-0.011,22.62-1.713,32.786-4.445c5.095-1.383,9.848-3.01,14.081-4.882c4.233-1.882,7.966-3.999,11.039-6.498v-0.01 c4.147-3.414,7.583-7.168,10.049-11.326c2.468-4.147,3.946-8.763,3.957-13.548v-0.022v-0.01v-0.223h-0.011 c-0.042-4.956-1.733-9.859-4.838-14.112c-0.638-0.883-1.35-1.734-2.095-2.564c0.298-0.042,0.734-0.074,1.256-0.074l0.181-0.011 c1.605,0,4.115,0.308,7.082,0.968c2.979,0.638,6.435,1.594,10.146,2.786h0.011c11.294,3.584,25.023,9.156,37.743,13.889 c6.38,2.372,12.528,4.541,18.154,6.168c5.636,1.606,10.752,2.754,15.654,2.787h0.011c0.766,0,1.509-0.032,2.254-0.096l0.042-0.011 c4.53-0.415,8.774-1.797,12.549-3.871c3.797-2.063,7.158-4.796,10.114-7.922c8.806-9.39,14.538-22.302,18.42-35.743v-0.011 c3.839-13.474,5.711-27.566,5.72-39.561C511.968,225.75,508.108,208.043,499.664,194.325z M49.739,248.072 c-8.274,0-14.974-6.7-14.974-14.974c0-8.274,6.699-14.974,14.974-14.974c8.274,0,14.974,6.7,14.974,14.974 C64.713,241.373,58.013,248.072,49.739,248.072z M120.662,337.83c-4.318-1.096-8.625-2.254-12.868-3.477 c-0.118-0.033-0.224-0.064-0.33-0.096c-4.021-1.16-7.998-2.382-11.921-3.67c-0.426-0.137-0.852-0.286-1.287-0.436 c-3.531-1.17-7.009-2.404-10.433-3.691c12.847-23.247,17.707-47.782,17.696-70.518c0-18.675-3.254-36.148-8.018-50.781 c-4.244-12.986-9.657-23.716-15.123-31.118c2.552-1.605,5.168-3.19,7.837-4.732c0.373-0.214,0.734-0.437,1.107-0.649 c2.712-1.553,5.476-3.073,8.316-4.541c0-0.011,0.011-0.011,0.011-0.011c2.446-1.265,4.924-2.477,7.455-3.669 c0.468-0.223,0.946-0.436,1.426-0.648c2.073-0.957,4.168-1.894,6.296-2.798c0.244-0.106,0.478-0.202,0.723-0.308 c6.541,11.39,27.321,51.578,27.31,102.455C138.858,283.561,134.062,310.424,120.662,337.83z M271.857,346.252 c-0.542,0.149-1.074,0.308-1.627,0.446c-1.202,0.33-2.414,0.638-3.637,0.936c-0.649,0.159-1.287,0.33-1.946,0.489 c-1.032,0.245-2.084,0.457-3.138,0.692c-0.85,0.18-1.702,0.372-2.564,0.542c-0.67,0.138-1.361,0.244-2.042,0.372 c-8.433,1.563-17.228,2.5-26.364,2.594c-0.074,0-0.148,0-0.233,0c-1.351-19.301-9.934-35.806-18.314-52.248 c-8.817-17.27-17.398-34.457-17.707-54.791c-0.01-0.308-0.01-0.616-0.01-0.924c-0.022-20.483,10.529-41.232,21.205-58.683 c5.34-8.73,10.678-16.643,14.73-23.342c2.02-3.351,3.722-6.402,4.934-9.136c1-2.265,1.649-4.286,1.861-6.168 c1.946,0.478,3.914,0.925,5.838,1.435c0.511,0.138,1.022,0.256,1.522,0.393c7.465,2.042,14.74,4.382,21.801,6.902 c0.691,0.256,1.372,0.51,2.074,0.756c1.467,0.542,2.892,1.105,4.349,1.658c-0.852,2.234-1.776,5.211-2.776,8.933 c-4.52,16.952-10.071,48.558-10.071,84.951c0,29.756,3.733,62.702,14.814,93.395C273.665,345.721,272.761,345.997,271.857,346.252z M425.955,309.573c-0.787-0.298-1.564-0.596-2.35-0.894c-0.149-0.063-0.298-0.116-0.436-0.17c-1.808-0.691-3.616-1.382-5.434-2.073 c-0.522-0.203-1.031-0.394-1.553-0.596c-2.743-1.042-5.488-2.073-8.188-3.073c-0.245-0.086-0.5-0.181-0.745-0.277 c-0.585-0.214-1.159-0.415-1.744-0.627c-0.702-0.256-1.404-0.5-2.094-0.756c-0.841-0.297-1.66-0.574-2.478-0.861 c-0.755-0.266-1.51-0.52-2.243-0.776c-0.777-0.255-1.532-0.5-2.298-0.755c-0.52-0.17-1.063-0.362-1.584-0.522h0.011 c-0.192-0.052-0.372-0.106-0.564-0.159c-1.563-0.5-3.094-0.957-4.584-1.372c-0.276-0.074-0.552-0.17-0.829-0.244 c-5.041-15.187-7.125-31.458-7.125-46.868c-0.011-20.557,3.658-39.571,8.614-52.333c8.422-1.787,17.047-4.254,25.746-6.668 c0.044-0.011,0.096-0.022,0.138-0.033c3.425-0.956,6.86-1.892,10.274-2.775c0.085-0.022,0.17-0.042,0.255-0.064 c-4.923,15.59-8.316,38.36-8.326,62.862C418.426,270.107,420.626,290.717,425.955,309.573z"/> <path class="st0" d="M465.25,331.831h-0.054c0,0.011-0.011,0.011-0.022,0.011L465.25,331.831z"/> </g> </g>
</svg>