<svg xmlns="http://www.w3.org/2000/svg" version="1.1" xmlns:xlink="http://www.w3.org/1999/xlink" width="800px" height="800px"><svg xmlns="http://www.w3.org/2000/svg" version="1.1" xmlns:xlink="http://www.w3.org/1999/xlink" width="800px" height="800px"><svg fill="#c05426" width="800px" height="800px" version="1.1" viewBox="144 144 512 512" xmlns="http://www.w3.org/2000/svg" stroke="#c05426">

<g id="SVGRepo_bgCarrier" stroke-width="0"></g>

<g id="SVGRepo_tracerCarrier" stroke-linecap="round" stroke-linejoin="round" stroke="#CCCCCC" stroke-width="37.888"> <path d="m576.33 400c0 46.766-18.578 91.617-51.648 124.68-33.066 33.07-77.918 51.648-124.68 51.648-46.77 0-91.617-18.578-124.69-51.648-33.07-33.066-51.648-77.918-51.648-124.68 0-46.77 18.578-91.617 51.648-124.69s77.918-51.648 124.69-51.648h6.75c37.336 1.9297 72.066 19.719 95.449 48.887 23.383 29.172 33.188 66.941 26.945 103.8-6.2422 36.863-27.938 69.297-59.621 89.141 20.25-21.582 29.379-51.324 24.723-80.551-4.6562-29.23-22.57-54.66-48.527-68.887-25.953-14.223-57.031-15.641-84.172-3.8398-27.145 11.801-47.301 35.492-54.602 64.176-7.2969 28.684-0.91797 59.133 17.281 82.473 18.199 23.34 46.176 36.945 75.773 36.859 37.551-0.0625 73.531-15.094 99.965-41.766 26.434-26.676 41.141-62.785 40.867-100.34-0.27734-37.551-15.516-73.441-42.34-99.723 23.941 16.121 43.559 37.875 57.133 63.348 13.57 25.477 20.68 53.891 20.707 82.758z"></path> </g>

<g id="SVGRepo_iconCarrier"> <path d="m576.33 400c0 46.766-18.578 91.617-51.648 124.68-33.066 33.07-77.918 51.648-124.68 51.648-46.77 0-91.617-18.578-124.69-51.648-33.07-33.066-51.648-77.918-51.648-124.68 0-46.77 18.578-91.617 51.648-124.69s77.918-51.648 124.69-51.648h6.75c37.336 1.9297 72.066 19.719 95.449 48.887 23.383 29.172 33.188 66.941 26.945 103.8-6.2422 36.863-27.938 69.297-59.621 89.141 20.25-21.582 29.379-51.324 24.723-80.551-4.6562-29.23-22.57-54.66-48.527-68.887-25.953-14.223-57.031-15.641-84.172-3.8398-27.145 11.801-47.301 35.492-54.602 64.176-7.2969 28.684-0.91797 59.133 17.281 82.473 18.199 23.34 46.176 36.945 75.773 36.859 37.551-0.0625 73.531-15.094 99.965-41.766 26.434-26.676 41.141-62.785 40.867-100.34-0.27734-37.551-15.516-73.441-42.34-99.723 23.941 16.121 43.559 37.875 57.133 63.348 13.57 25.477 20.68 53.891 20.707 82.758z"></path> </g>

</svg></svg><style>@media (prefers-color-scheme: light) { :root { filter: none; } }
@media (prefers-color-scheme: dark) { :root { filter: none; } }
</style></svg>